<svg width="20" height="20" viewBox="0 0 20 20" fill="none" xmlns="http://www.w3.org/2000/svg">
<g clip-path="url(#clip0_13_122)">
<path d="M5.83333 0H3.33333C2.44928 0 1.60143 0.35119 0.976311 0.976311C0.35119 1.60143 0 2.44928 0 3.33333L0 5.83333C0 6.71739 0.35119 7.56524 0.976311 8.19036C1.60143 8.81548 2.44928 9.16667 3.33333 9.16667H5.83333C6.71739 9.16667 7.56524 8.81548 8.19036 8.19036C8.81548 7.56524 9.16667 6.71739 9.16667 5.83333V3.33333C9.16667 2.44928 8.81548 1.60143 8.19036 0.976311C7.56524 0.35119 6.71739 0 5.83333 0V0ZM7.5 5.83333C7.5 6.27536 7.32441 6.69928 7.01184 7.01184C6.69928 7.32441 6.27536 7.5 5.83333 7.5H3.33333C2.89131 7.5 2.46738 7.32441 2.15482 7.01184C1.84226 6.69928 1.66667 6.27536 1.66667 5.83333V3.33333C1.66667 2.89131 1.84226 2.46738 2.15482 2.15482C2.46738 1.84226 2.89131 1.66667 3.33333 1.66667H5.83333C6.27536 1.66667 6.69928 1.84226 7.01184 2.15482C7.32441 2.46738 7.5 2.89131 7.5 3.33333V5.83333Z" fill="white"/>
<path d="M16.6667 0H14.1667C13.2827 0 12.4348 0.351189 11.8097 0.97631C11.1846 1.60143 10.8334 2.44928 10.8334 3.33333V5.83333C10.8334 6.71738 11.1846 7.56523 11.8097 8.19035C12.4348 8.81547 13.2827 9.16666 14.1667 9.16666H16.6667C17.5508 9.16666 18.3986 8.81547 19.0237 8.19035C19.6489 7.56523 20.0001 6.71738 20.0001 5.83333V3.33333C20.0001 2.44928 19.6489 1.60143 19.0237 0.97631C18.3986 0.351189 17.5508 0 16.6667 0V0ZM18.3334 5.83333C18.3334 6.27536 18.1578 6.69928 17.8452 7.01184C17.5327 7.3244 17.1087 7.49999 16.6667 7.49999H14.1667C13.7247 7.49999 13.3008 7.3244 12.9882 7.01184C12.6756 6.69928 12.5 6.27536 12.5 5.83333V3.33333C12.5 2.8913 12.6756 2.46738 12.9882 2.15482C13.3008 1.84226 13.7247 1.66667 14.1667 1.66667H16.6667C17.1087 1.66667 17.5327 1.84226 17.8452 2.15482C18.1578 2.46738 18.3334 2.8913 18.3334 3.33333V5.83333Z" fill="white"/>
<path d="M5.83333 10.8333H3.33333C2.44928 10.8333 1.60143 11.1845 0.976311 11.8096C0.35119 12.4347 0 13.2826 0 14.1666L0 16.6666C0 17.5507 0.35119 18.3985 0.976311 19.0237C1.60143 19.6488 2.44928 20 3.33333 20H5.83333C6.71739 20 7.56524 19.6488 8.19036 19.0237C8.81548 18.3985 9.16667 17.5507 9.16667 16.6666V14.1666C9.16667 13.2826 8.81548 12.4347 8.19036 11.8096C7.56524 11.1845 6.71739 10.8333 5.83333 10.8333ZM7.5 16.6666C7.5 17.1087 7.32441 17.5326 7.01184 17.8452C6.69928 18.1577 6.27536 18.3333 5.83333 18.3333H3.33333C2.89131 18.3333 2.46738 18.1577 2.15482 17.8452C1.84226 17.5326 1.66667 17.1087 1.66667 16.6666V14.1666C1.66667 13.7246 1.84226 13.3007 2.15482 12.9881C2.46738 12.6756 2.89131 12.5 3.33333 12.5H5.83333C6.27536 12.5 6.69928 12.6756 7.01184 12.9881C7.32441 13.3007 7.5 13.7246 7.5 14.1666V16.6666Z" fill="white"/>
<path d="M16.6667 10.8333H14.1667C13.2827 10.8333 12.4348 11.1845 11.8097 11.8096C11.1846 12.4347 10.8334 13.2826 10.8334 14.1666V16.6666C10.8334 17.5507 11.1846 18.3985 11.8097 19.0237C12.4348 19.6488 13.2827 20 14.1667 20H16.6667C17.5508 20 18.3986 19.6488 19.0237 19.0237C19.6489 18.3985 20.0001 17.5507 20.0001 16.6666V14.1666C20.0001 13.2826 19.6489 12.4347 19.0237 11.8096C18.3986 11.1845 17.5508 10.8333 16.6667 10.8333ZM18.3334 16.6666C18.3334 17.1087 18.1578 17.5326 17.8452 17.8452C17.5327 18.1577 17.1087 18.3333 16.6667 18.3333H14.1667C13.7247 18.3333 13.3008 18.1577 12.9882 17.8452C12.6756 17.5326 12.5 17.1087 12.5 16.6666V14.1666C12.5 13.7246 12.6756 13.3007 12.9882 12.9881C13.3008 12.6756 13.7247 12.5 14.1667 12.5H16.6667C17.1087 12.5 17.5327 12.6756 17.8452 12.9881C18.1578 13.3007 18.3334 13.7246 18.3334 14.1666V16.6666Z" fill="white"/>
</g>
<defs>
<clipPath id="clip0_13_122">
<rect width="20" height="20" fill="white"/>
</clipPath>
</defs>
</svg>
