<svg width="20" height="20" viewBox="0 0 20 20" fill="none" xmlns="http://www.w3.org/2000/svg">
<path fill-rule="evenodd" clip-rule="evenodd" d="M18.75 2.5C18.75 2.16848 18.6183 1.85054 18.3839 1.61612C18.1495 1.3817 17.8315 1.25 17.5 1.25H2.5C2.16848 1.25 1.85054 1.3817 1.61612 1.61612C1.3817 1.85054 1.25 2.16848 1.25 2.5V17.5C1.25 17.8315 1.3817 18.1495 1.61612 18.3839C1.85054 18.6183 2.16848 18.75 2.5 18.75H17.5C17.8315 18.75 18.1495 18.6183 18.3839 18.3839C18.6183 18.1495 18.75 17.8315 18.75 17.5V2.5ZM0 2.5C0 1.83696 0.263392 1.20107 0.732233 0.732233C1.20107 0.263392 1.83696 0 2.5 0L17.5 0C18.163 0 18.7989 0.263392 19.2678 0.732233C19.7366 1.20107 20 1.83696 20 2.5V17.5C20 18.163 19.7366 18.7989 19.2678 19.2678C18.7989 19.7366 18.163 20 17.5 20H2.5C1.83696 20 1.20107 19.7366 0.732233 19.2678C0.263392 18.7989 0 18.163 0 17.5V2.5ZM10.625 14.375C10.625 14.5408 10.5592 14.6997 10.4419 14.8169C10.3247 14.9342 10.1658 15 10 15C9.83424 15 9.67527 14.9342 9.55806 14.8169C9.44085 14.6997 9.375 14.5408 9.375 14.375V7.13375L6.6925 9.8175C6.57514 9.93486 6.41597 10.0008 6.25 10.0008C6.08403 10.0008 5.92486 9.93486 5.8075 9.8175C5.69014 9.70014 5.62421 9.54097 5.62421 9.375C5.62421 9.20903 5.69014 9.04986 5.8075 8.9325L9.5575 5.1825C9.61556 5.1243 9.68453 5.07812 9.76046 5.04661C9.83639 5.0151 9.91779 4.99888 10 4.99888C10.0822 4.99888 10.1636 5.0151 10.2395 5.04661C10.3155 5.07812 10.3844 5.1243 10.4425 5.1825L14.1925 8.9325C14.3099 9.04986 14.3758 9.20903 14.3758 9.375C14.3758 9.54097 14.3099 9.70014 14.1925 9.8175C14.0751 9.93486 13.916 10.0008 13.75 10.0008C13.584 10.0008 13.4249 9.93486 13.3075 9.8175L10.625 7.13375V14.375Z" fill="#42FF00"/>
</svg>
