<svg width="50" height="50" viewBox="0 0 50 50" fill="none" xmlns="http://www.w3.org/2000/svg">
<path d="M46.0938 18.75C47.1298 18.75 48.1233 19.1616 48.8559 19.8941C49.5884 20.6267 50 21.6202 50 22.6562V46.0938C50 47.1298 49.5884 48.1233 48.8559 48.8559C48.1233 49.5884 47.1298 50 46.0938 50H22.6562C21.6202 50 20.6267 49.5884 19.8941 48.8559C19.1616 48.1233 18.75 47.1298 18.75 46.0937L18.75 22.6562C18.75 21.6202 19.1616 20.6267 19.8941 19.8941C20.6267 19.1616 21.6202 18.75 22.6563 18.75L46.0938 18.75ZM33.3984 27.5391V38.8535L29.207 34.6602C29.1162 34.5694 29.0084 34.4973 28.8898 34.4482C28.7712 34.3991 28.644 34.3738 28.5156 34.3738C28.3872 34.3738 28.2601 34.3991 28.1414 34.4482C28.0228 34.4973 27.915 34.5694 27.8242 34.6602C27.7334 34.751 27.6614 34.8587 27.6123 34.9774C27.5631 35.096 27.5378 35.2232 27.5378 35.3516C27.5378 35.48 27.5631 35.6071 27.6123 35.7257C27.6614 35.8444 27.7334 35.9522 27.8242 36.043L33.6836 41.9023C33.7743 41.9933 33.8821 42.0654 34.0007 42.1147C34.1194 42.1639 34.2465 42.1892 34.375 42.1892C34.5035 42.1892 34.6306 42.1639 34.7493 42.1147C34.8679 42.0654 34.9757 41.9933 35.0664 41.9023L40.9258 36.043C41.1092 35.8596 41.2122 35.6109 41.2122 35.3516C41.2122 35.0922 41.1092 34.8435 40.9258 34.6602C40.7424 34.4768 40.4937 34.3738 40.2344 34.3738C39.975 34.3738 39.7263 34.4768 39.543 34.6602L35.3516 38.8535V27.5391C35.3516 27.2801 35.2487 27.0317 35.0655 26.8485C34.8824 26.6654 34.634 26.5625 34.375 26.5625C34.116 26.5625 33.8676 26.6654 33.6845 26.8485C33.5013 27.0317 33.3984 27.2801 33.3984 27.5391Z" fill="#F2F2F2"/>
<path fill-rule="evenodd" clip-rule="evenodd" d="M29.2969 3.90625C29.2969 3.38825 29.0911 2.89146 28.7248 2.52518C28.3585 2.1589 27.8618 1.95312 27.3438 1.95312H3.90625C3.38825 1.95312 2.89146 2.1589 2.52518 2.52518C2.1589 2.89146 1.95312 3.38825 1.95312 3.90625V27.3438C1.95312 27.8618 2.1589 28.3585 2.52518 28.7248C2.89146 29.0911 3.38825 29.2969 3.90625 29.2969H27.3438C27.8618 29.2969 28.3585 29.0911 28.7248 28.7248C29.0911 28.3585 29.2969 27.8618 29.2969 27.3438V3.90625ZM0 3.90625C0 2.87025 0.41155 1.87668 1.14411 1.14411C1.87668 0.41155 2.87025 0 3.90625 0L27.3438 0C28.3798 0 29.3733 0.41155 30.1059 1.14411C30.8384 1.87668 31.25 2.87025 31.25 3.90625V27.3438C31.25 28.3798 30.8384 29.3733 30.1059 30.1059C29.3733 30.8384 28.3798 31.25 27.3438 31.25H3.90625C2.87025 31.25 1.87668 30.8384 1.14411 30.1059C0.41155 29.3733 0 28.3798 0 27.3438V3.90625ZM16.6016 22.4609C16.6016 22.7199 16.4987 22.9683 16.3155 23.1515C16.1324 23.3346 15.884 23.4375 15.625 23.4375C15.366 23.4375 15.1176 23.3346 14.9345 23.1515C14.7513 22.9683 14.6484 22.7199 14.6484 22.4609V11.1465L10.457 15.3398C10.2737 15.5232 10.025 15.6262 9.76562 15.6262C9.5063 15.6262 9.25759 15.5232 9.07422 15.3398C8.89085 15.1565 8.78783 14.9078 8.78783 14.6484C8.78783 14.3891 8.89085 14.1404 9.07422 13.957L14.9336 8.09766C15.0243 8.00671 15.1321 7.93456 15.2507 7.88533C15.3694 7.8361 15.4965 7.81075 15.625 7.81075C15.7535 7.81075 15.8806 7.8361 15.9993 7.88533C16.1179 7.93456 16.2257 8.00671 16.3164 8.09766L22.1758 13.957C22.3592 14.1404 22.4622 14.3891 22.4622 14.6484C22.4622 14.9078 22.3592 15.1565 22.1758 15.3398C21.9924 15.5232 21.7437 15.6262 21.4844 15.6262C21.225 15.6262 20.9763 15.5232 20.793 15.3398L16.6016 11.1465V22.4609Z" fill="#F2F2F2"/>
</svg>
